<svg viewBox="0 0 1024 1024" xmlns="http://www.w3.org/2000/svg"><path d="m439.752 698.572 264.7-264.698-14.104-14.104 60.015-60.013-87.232-87.234-60.014 60.015-14.105-14.105-10.92 10.92c-37.887-75.19-30.804-166.974 37.034-282.885l-.002-.003c-329.68-132.36-685.272 269.162-571.217 583.965 106.837-62.11 217.013-88.613 299.25-66.145l-18.847 18.845 14.106 14.106-316.97 316.967v90.817h83.65l320.552-320.552zm538.743-288.732c-117.528 68.78-210.087 75.33-285.75 35.74l-232.905 232.906c24.15 82.545-2.302 194.184-65.31 302.568 314.802 114.055 716.326-241.54 583.966-571.215z"/></svg>