<svg viewBox="0 0 1024 1024" xmlns="http://www.w3.org/2000/svg"><path d="m27.43 918.8 30.374-30.374 80.793 80.793-30.374 30.373zm422.393-253.815c0-48.52-39.36-87.882-87.882-87.882s-87.88 39.36-87.88 87.88 39.34 87.86 87.883 87.882 87.902-39.338 87.88-87.88zm-175.35 8.4-.808-.806-166.337 166.335 80.794 80.794 166.338-166.338-.92-.92c-41.833-3.986-75.1-37.253-79.068-79.065zm-.412-8.4c0-45.508 34.622-82.953 78.95-87.432-46.73-53.12-88.213-110.883-123.85-172.613l-111.569 111.566 156.878 156.877c-.262-2.763-.41-5.564-.41-8.4zm175.316 8.96c-4.472 44.335-41.914 78.943-87.433 78.92-2.836 0-5.638-.148-8.406-.412l157.057 157.057 111.565-111.564c-62.062-35.842-119.84-77.405-172.784-124zm366.12-599.313-423.003 423.004c6.535 9.622 10.73 21.41 10.73 33.817 0 19.234-9.19 36.44-23.376 47.483 34.71 7.19 61.918 34.87 68.453 69.814 11.013-14.625 28.5-24.14 48.078-24.14 12.407 0 23.51 3.51 32.978 9.89l423.002-423 29.69-166.556-166.552 29.688zm-773.532 797.948 112.54 112.54 49.513-49.515-112.54-112.54z"/></svg>