<svg viewBox="0 0 1024 1024" xmlns="http://www.w3.org/2000/svg"><path d="M280.708 504.14c205.95 195.006 461.69 364.507 708.4 481.706C872.553 740.474 701.894 482.658 506.345 276.32c9.82-5.876 19.862-11.506 30.172-16.836l81.633 6.998 55.245-129.878-137.704 11.56c-66.263 39.932-127.65 84.048-183.088 133.26-48.465-80.58-113.315-143.26-194.568-181.195.685-3.995 1.062-8.093 1.062-12.282 0-39.856-32.315-72.17-72.173-72.17S14.75 48.09 14.75 87.947s32.315 72.16 72.173 72.16c5.205 0 10.277-.562 15.17-1.61 35.237 88.752 99.036 148.95 178.853 193.13-50.306 54.55-94.068 114.71-130.158 181.44l-11.56 137.705 129.056-54.426-7.004-81.63c6.35-10.33 12.826-20.524 19.43-30.577zm57.34-69.344L440.08 332.77c95.227 95.22 178.74 219.095 234.554 336.583-118.35-56.23-241.353-139.326-336.585-234.556z"/></svg>